<svg width="1363" height="163" viewBox="0 0 1363 163" fill="none" xmlns="http://www.w3.org/2000/svg">
<path d="M0 15C0 6.71573 6.71573 0 15 0H37V163H15C6.71573 163 0 156.284 0 148V15Z" fill="#424242"/>
<rect width="1097" height="163" transform="translate(37)" fill="#F0F0F0"/>
<path d="M103.406 56.5352C103.406 56.2305 103.359 55.957 103.266 55.7148C103.18 55.4648 103.016 55.2383 102.773 55.0352C102.531 54.8242 102.191 54.6172 101.754 54.4141C101.316 54.2109 100.75 54 100.055 53.7812C99.2812 53.5312 98.5469 53.25 97.8516 52.9375C97.1641 52.625 96.5547 52.2617 96.0234 51.8477C95.5 51.4258 95.0859 50.9375 94.7812 50.3828C94.4844 49.8281 94.3359 49.1836 94.3359 48.4492C94.3359 47.7383 94.4922 47.0938 94.8047 46.5156C95.1172 45.9297 95.5547 45.4297 96.1172 45.0156C96.6797 44.5938 97.3438 44.2695 98.1094 44.043C98.8828 43.8164 99.7305 43.7031 100.652 43.7031C101.91 43.7031 103.008 43.9297 103.945 44.3828C104.883 44.8359 105.609 45.457 106.125 46.2461C106.648 47.0352 106.91 47.9375 106.91 48.9531H103.418C103.418 48.4531 103.312 48.0156 103.102 47.6406C102.898 47.2578 102.586 46.957 102.164 46.7383C101.75 46.5195 101.227 46.4102 100.594 46.4102C99.9844 46.4102 99.4766 46.5039 99.0703 46.6914C98.6641 46.8711 98.3594 47.1172 98.1562 47.4297C97.9531 47.7344 97.8516 48.0781 97.8516 48.4609C97.8516 48.75 97.9219 49.0117 98.0625 49.2461C98.2109 49.4805 98.4297 49.6992 98.7188 49.9023C99.0078 50.1055 99.3633 50.2969 99.7852 50.4766C100.207 50.6562 100.695 50.832 101.25 51.0039C102.18 51.2852 102.996 51.6016 103.699 51.9531C104.41 52.3047 105.004 52.6992 105.48 53.1367C105.957 53.5742 106.316 54.0703 106.559 54.625C106.801 55.1797 106.922 55.8086 106.922 56.5117C106.922 57.2539 106.777 57.918 106.488 58.5039C106.199 59.0898 105.781 59.5859 105.234 59.9922C104.688 60.3984 104.035 60.707 103.277 60.918C102.52 61.1289 101.672 61.2344 100.734 61.2344C99.8906 61.2344 99.0586 61.125 98.2383 60.9062C97.418 60.6797 96.6719 60.3398 96 59.8867C95.3359 59.4336 94.8047 58.8555 94.4062 58.1523C94.0078 57.4492 93.8086 56.6172 93.8086 55.6562H97.3359C97.3359 56.1875 97.418 56.6367 97.582 57.0039C97.7461 57.3711 97.9766 57.668 98.2734 57.8945C98.5781 58.1211 98.9375 58.2852 99.3516 58.3867C99.7734 58.4883 100.234 58.5391 100.734 58.5391C101.344 58.5391 101.844 58.4531 102.234 58.2812C102.633 58.1094 102.926 57.8711 103.113 57.5664C103.309 57.2617 103.406 56.918 103.406 56.5352ZM123.328 52.0703V52.8789C123.328 54.1758 123.152 55.3398 122.801 56.3711C122.449 57.4023 121.953 58.2812 121.312 59.0078C120.672 59.7266 119.906 60.2773 119.016 60.6602C118.133 61.043 117.152 61.2344 116.074 61.2344C115.004 61.2344 114.023 61.043 113.133 60.6602C112.25 60.2773 111.484 59.7266 110.836 59.0078C110.188 58.2812 109.684 57.4023 109.324 56.3711C108.973 55.3398 108.797 54.1758 108.797 52.8789V52.0703C108.797 50.7656 108.973 49.6016 109.324 48.5781C109.676 47.5469 110.172 46.668 110.812 45.9414C111.461 45.2148 112.227 44.6602 113.109 44.2773C114 43.8945 114.98 43.7031 116.051 43.7031C117.129 43.7031 118.109 43.8945 118.992 44.2773C119.883 44.6602 120.648 45.2148 121.289 45.9414C121.938 46.668 122.438 47.5469 122.789 48.5781C123.148 49.6016 123.328 50.7656 123.328 52.0703ZM119.777 52.8789V52.0469C119.777 51.1406 119.695 50.3438 119.531 49.6562C119.367 48.9688 119.125 48.3906 118.805 47.9219C118.484 47.4531 118.094 47.1016 117.633 46.8672C117.172 46.625 116.645 46.5039 116.051 46.5039C115.457 46.5039 114.93 46.625 114.469 46.8672C114.016 47.1016 113.629 47.4531 113.309 47.9219C112.996 48.3906 112.758 48.9688 112.594 49.6562C112.43 50.3438 112.348 51.1406 112.348 52.0469V52.8789C112.348 53.7773 112.43 54.5742 112.594 55.2695C112.758 55.957 113 56.5391 113.32 57.0156C113.641 57.4844 114.031 57.8398 114.492 58.082C114.953 58.3242 115.48 58.4453 116.074 58.4453C116.668 58.4453 117.195 58.3242 117.656 58.082C118.117 57.8398 118.504 57.4844 118.816 57.0156C119.129 56.5391 119.367 55.957 119.531 55.2695C119.695 54.5742 119.777 53.7773 119.777 52.8789ZM136.828 58.2578V61H128.238V58.2578H136.828ZM129.375 43.9375V61H125.859V43.9375H129.375ZM146.016 46.8555L141.375 61H137.637L143.977 43.9375H146.355L146.016 46.8555ZM149.871 61L145.219 46.8555L144.844 43.9375H147.246L153.621 61H149.871ZM149.66 54.6484V57.4023H140.648V54.6484H149.66ZM155.203 43.9375H161.566C162.871 43.9375 163.992 44.1328 164.93 44.5234C165.875 44.9141 166.602 45.4922 167.109 46.2578C167.617 47.0234 167.871 47.9648 167.871 49.082C167.871 49.9961 167.715 50.7812 167.402 51.4375C167.098 52.0859 166.664 52.6289 166.102 53.0664C165.547 53.4961 164.895 53.8398 164.145 54.0977L163.031 54.6836H157.5L157.477 51.9414H161.59C162.207 51.9414 162.719 51.832 163.125 51.6133C163.531 51.3945 163.836 51.0898 164.039 50.6992C164.25 50.3086 164.355 49.8555 164.355 49.3398C164.355 48.793 164.254 48.3203 164.051 47.9219C163.848 47.5234 163.539 47.2188 163.125 47.0078C162.711 46.7969 162.191 46.6914 161.566 46.6914H158.719V61H155.203V43.9375ZM164.742 61L160.852 53.3945L164.566 53.3711L168.504 60.8359V61H164.742ZM174.316 43.9375V61H170.812V43.9375H174.316ZM186.879 58.4688L191.496 62.125L189.281 64.0469L184.734 60.3906L186.879 58.4688ZM191.613 52.0703V52.8789C191.613 54.1758 191.438 55.3398 191.086 56.3711C190.742 57.4023 190.246 58.2812 189.598 59.0078C188.949 59.7266 188.184 60.2773 187.301 60.6602C186.418 61.043 185.438 61.2344 184.359 61.2344C183.289 61.2344 182.309 61.043 181.418 60.6602C180.527 60.2773 179.758 59.7266 179.109 59.0078C178.461 58.2812 177.957 57.4023 177.598 56.3711C177.246 55.3398 177.07 54.1758 177.07 52.8789V52.0703C177.07 50.7656 177.246 49.6016 177.598 48.5781C177.957 47.5469 178.457 46.668 179.098 45.9414C179.738 45.2148 180.504 44.6602 181.395 44.2773C182.285 43.8945 183.266 43.7031 184.336 43.7031C185.414 43.7031 186.395 43.8945 187.277 44.2773C188.168 44.6602 188.938 45.2148 189.586 45.9414C190.234 46.668 190.734 47.5469 191.086 48.5781C191.438 49.6016 191.613 50.7656 191.613 52.0703ZM188.062 52.8789V52.0469C188.062 51.1406 187.977 50.3438 187.805 49.6562C187.641 48.9688 187.398 48.3906 187.078 47.9219C186.766 47.4531 186.379 47.1016 185.918 46.8672C185.457 46.625 184.93 46.5039 184.336 46.5039C183.742 46.5039 183.215 46.625 182.754 46.8672C182.293 47.1016 181.906 47.4531 181.594 47.9219C181.281 48.3906 181.043 48.9688 180.879 49.6562C180.715 50.3438 180.633 51.1406 180.633 52.0469V52.8789C180.633 53.7773 180.715 54.5742 180.879 55.2695C181.043 55.957 181.281 56.5391 181.594 57.0156C181.914 57.4844 182.305 57.8398 182.766 58.082C183.234 58.3242 183.766 58.4453 184.359 58.4453C184.953 58.4453 185.477 58.3242 185.93 58.082C186.391 57.8398 186.777 57.4844 187.09 57.0156C187.41 56.5391 187.652 55.957 187.816 55.2695C187.98 54.5742 188.062 53.7773 188.062 52.8789Z" fill="#888888"/>
<path d="M114.117 84.875H122.344V107.164C122.344 109.82 121.789 112.07 120.68 113.914C119.57 115.742 118.016 117.125 116.016 118.062C114.016 119 111.664 119.469 108.961 119.469C106.289 119.469 103.938 119 101.906 118.062C99.8906 117.125 98.3125 115.742 97.1719 113.914C96.0469 112.07 95.4844 109.82 95.4844 107.164V84.875H103.734V107.164C103.734 108.57 103.938 109.719 104.344 110.609C104.75 111.484 105.344 112.125 106.125 112.531C106.906 112.938 107.852 113.141 108.961 113.141C110.086 113.141 111.031 112.938 111.797 112.531C112.562 112.125 113.141 111.484 113.531 110.609C113.922 109.719 114.117 108.57 114.117 107.164V84.875ZM136.266 84.875V119H128.062V84.875H136.266ZM172.523 84.875H180.75V107.164C180.75 109.82 180.195 112.07 179.086 113.914C177.977 115.742 176.422 117.125 174.422 118.062C172.422 119 170.07 119.469 167.367 119.469C164.695 119.469 162.344 119 160.312 118.062C158.297 117.125 156.719 115.742 155.578 113.914C154.453 112.07 153.891 109.82 153.891 107.164V84.875H162.141V107.164C162.141 108.57 162.344 109.719 162.75 110.609C163.156 111.484 163.75 112.125 164.531 112.531C165.312 112.938 166.258 113.141 167.367 113.141C168.492 113.141 169.438 112.938 170.203 112.531C170.969 112.125 171.547 111.484 171.938 110.609C172.328 109.719 172.523 108.57 172.523 107.164V84.875ZM193.078 84.875L198.656 96.2188L204.234 84.875H213.609L204.094 101.797L213.867 119H204.398L198.656 107.445L192.914 119H183.422L193.219 101.797L183.68 84.875H193.078Z" fill="black"/>
<path d="M1134 0H1348C1356.28 0 1363 6.71573 1363 15V148C1363 156.284 1356.28 163 1348 163H1134V0Z" fill="#F4D26B"/>
<path d="M1248.5 111.917C1244.51 111.917 1240.55 111.13 1236.86 109.601C1233.17 108.073 1229.82 105.832 1226.99 103.008C1221.29 97.3036 1218.08 89.567 1218.08 81.5C1218.08 73.433 1221.29 65.6964 1226.99 59.9922C1232.7 54.2879 1240.43 51.0833 1248.5 51.0833C1265.23 51.0833 1278.92 63.25 1278.92 78.4583C1278.92 83.2985 1276.99 87.9405 1273.57 91.363C1270.15 94.7856 1265.51 96.7083 1260.67 96.7083H1255.19C1254.28 96.7083 1253.67 97.3167 1253.67 98.2292C1253.67 98.5333 1253.97 98.8375 1253.97 99.1417C1255.19 100.662 1255.8 102.487 1255.8 104.312C1256.1 108.571 1252.76 111.917 1248.5 111.917ZM1248.5 57.1667C1242.05 57.1667 1235.86 59.7303 1231.29 64.2937C1226.73 68.8571 1224.17 75.0464 1224.17 81.5C1224.17 87.9536 1226.73 94.1429 1231.29 98.7063C1235.86 103.27 1242.05 105.833 1248.5 105.833C1249.41 105.833 1250.02 105.225 1250.02 104.312C1250.02 103.704 1249.72 103.4 1249.72 103.096C1248.5 101.575 1247.89 100.054 1247.89 98.2292C1247.89 93.9708 1251.24 90.625 1255.5 90.625H1260.67C1263.89 90.625 1266.99 89.3432 1269.27 87.0615C1271.55 84.7798 1272.83 81.6851 1272.83 78.4583C1272.83 66.5958 1261.88 57.1667 1248.5 57.1667ZM1231.77 75.4167C1234.2 75.4167 1236.33 77.5458 1236.33 79.9792C1236.33 82.4125 1234.2 84.5417 1231.77 84.5417C1229.34 84.5417 1227.21 82.4125 1227.21 79.9792C1227.21 77.5458 1229.34 75.4167 1231.77 75.4167ZM1240.9 63.25C1243.33 63.25 1245.46 65.3792 1245.46 67.8125C1245.46 70.2458 1243.33 72.375 1240.9 72.375C1238.46 72.375 1236.33 70.2458 1236.33 67.8125C1236.33 65.3792 1238.46 63.25 1240.9 63.25ZM1256.1 63.25C1258.54 63.25 1260.67 65.3792 1260.67 67.8125C1260.67 70.2458 1258.54 72.375 1256.1 72.375C1253.67 72.375 1251.54 70.2458 1251.54 67.8125C1251.54 65.3792 1253.67 63.25 1256.1 63.25ZM1265.23 75.4167C1267.66 75.4167 1269.79 77.5458 1269.79 79.9792C1269.79 82.4125 1267.66 84.5417 1265.23 84.5417C1262.8 84.5417 1260.67 82.4125 1260.67 79.9792C1260.67 77.5458 1262.8 75.4167 1265.23 75.4167Z" fill="white"/>
</svg>
