<svg width="1363" height="163" viewBox="0 0 1363 163" fill="none" xmlns="http://www.w3.org/2000/svg">
<path d="M0 15C0 6.71573 6.71573 0 15 0H37V163H15C6.71573 163 0 156.284 0 148V15Z" fill="#424242"/>
<rect width="1097" height="163" transform="translate(37)" fill="#F0F0F0"/>
<path d="M101.906 53.9219L94.3945 51.2383V48.0859L104.602 52.375V54.6367L101.906 53.9219ZM94.3945 56.1719L101.918 53.4297L104.602 52.7852V55.0352L94.3945 59.3242V56.1719ZM121.781 56.5352C121.781 56.2305 121.734 55.957 121.641 55.7148C121.555 55.4648 121.391 55.2383 121.148 55.0352C120.906 54.8242 120.566 54.6172 120.129 54.4141C119.691 54.2109 119.125 54 118.43 53.7812C117.656 53.5312 116.922 53.25 116.227 52.9375C115.539 52.625 114.93 52.2617 114.398 51.8477C113.875 51.4258 113.461 50.9375 113.156 50.3828C112.859 49.8281 112.711 49.1836 112.711 48.4492C112.711 47.7383 112.867 47.0938 113.18 46.5156C113.492 45.9297 113.93 45.4297 114.492 45.0156C115.055 44.5938 115.719 44.2695 116.484 44.043C117.258 43.8164 118.105 43.7031 119.027 43.7031C120.285 43.7031 121.383 43.9297 122.32 44.3828C123.258 44.8359 123.984 45.457 124.5 46.2461C125.023 47.0352 125.285 47.9375 125.285 48.9531H121.793C121.793 48.4531 121.688 48.0156 121.477 47.6406C121.273 47.2578 120.961 46.957 120.539 46.7383C120.125 46.5195 119.602 46.4102 118.969 46.4102C118.359 46.4102 117.852 46.5039 117.445 46.6914C117.039 46.8711 116.734 47.1172 116.531 47.4297C116.328 47.7344 116.227 48.0781 116.227 48.4609C116.227 48.75 116.297 49.0117 116.438 49.2461C116.586 49.4805 116.805 49.6992 117.094 49.9023C117.383 50.1055 117.738 50.2969 118.16 50.4766C118.582 50.6562 119.07 50.832 119.625 51.0039C120.555 51.2852 121.371 51.6016 122.074 51.9531C122.785 52.3047 123.379 52.6992 123.855 53.1367C124.332 53.5742 124.691 54.0703 124.934 54.625C125.176 55.1797 125.297 55.8086 125.297 56.5117C125.297 57.2539 125.152 57.918 124.863 58.5039C124.574 59.0898 124.156 59.5859 123.609 59.9922C123.062 60.3984 122.41 60.707 121.652 60.918C120.895 61.1289 120.047 61.2344 119.109 61.2344C118.266 61.2344 117.434 61.125 116.613 60.9062C115.793 60.6797 115.047 60.3398 114.375 59.8867C113.711 59.4336 113.18 58.8555 112.781 58.1523C112.383 57.4492 112.184 56.6172 112.184 55.6562H115.711C115.711 56.1875 115.793 56.6367 115.957 57.0039C116.121 57.3711 116.352 57.668 116.648 57.8945C116.953 58.1211 117.312 58.2852 117.727 58.3867C118.148 58.4883 118.609 58.5391 119.109 58.5391C119.719 58.5391 120.219 58.4531 120.609 58.2812C121.008 58.1094 121.301 57.8711 121.488 57.5664C121.684 57.2617 121.781 56.918 121.781 56.5352ZM141.703 52.0703V52.8789C141.703 54.1758 141.527 55.3398 141.176 56.3711C140.824 57.4023 140.328 58.2812 139.688 59.0078C139.047 59.7266 138.281 60.2773 137.391 60.6602C136.508 61.043 135.527 61.2344 134.449 61.2344C133.379 61.2344 132.398 61.043 131.508 60.6602C130.625 60.2773 129.859 59.7266 129.211 59.0078C128.562 58.2812 128.059 57.4023 127.699 56.3711C127.348 55.3398 127.172 54.1758 127.172 52.8789V52.0703C127.172 50.7656 127.348 49.6016 127.699 48.5781C128.051 47.5469 128.547 46.668 129.188 45.9414C129.836 45.2148 130.602 44.6602 131.484 44.2773C132.375 43.8945 133.355 43.7031 134.426 43.7031C135.504 43.7031 136.484 43.8945 137.367 44.2773C138.258 44.6602 139.023 45.2148 139.664 45.9414C140.312 46.668 140.812 47.5469 141.164 48.5781C141.523 49.6016 141.703 50.7656 141.703 52.0703ZM138.152 52.8789V52.0469C138.152 51.1406 138.07 50.3438 137.906 49.6562C137.742 48.9688 137.5 48.3906 137.18 47.9219C136.859 47.4531 136.469 47.1016 136.008 46.8672C135.547 46.625 135.02 46.5039 134.426 46.5039C133.832 46.5039 133.305 46.625 132.844 46.8672C132.391 47.1016 132.004 47.4531 131.684 47.9219C131.371 48.3906 131.133 48.9688 130.969 49.6562C130.805 50.3438 130.723 51.1406 130.723 52.0469V52.8789C130.723 53.7773 130.805 54.5742 130.969 55.2695C131.133 55.957 131.375 56.5391 131.695 57.0156C132.016 57.4844 132.406 57.8398 132.867 58.082C133.328 58.3242 133.855 58.4453 134.449 58.4453C135.043 58.4453 135.57 58.3242 136.031 58.082C136.492 57.8398 136.879 57.4844 137.191 57.0156C137.504 56.5391 137.742 55.957 137.906 55.2695C138.07 54.5742 138.152 53.7773 138.152 52.8789ZM155.203 58.2578V61H146.613V58.2578H155.203ZM147.75 43.9375V61H144.234V43.9375H147.75ZM164.391 46.8555L159.75 61H156.012L162.352 43.9375H164.73L164.391 46.8555ZM168.246 61L163.594 46.8555L163.219 43.9375H165.621L171.996 61H168.246ZM168.035 54.6484V57.4023H159.023V54.6484H168.035ZM173.578 43.9375H179.941C181.246 43.9375 182.367 44.1328 183.305 44.5234C184.25 44.9141 184.977 45.4922 185.484 46.2578C185.992 47.0234 186.246 47.9648 186.246 49.082C186.246 49.9961 186.09 50.7812 185.777 51.4375C185.473 52.0859 185.039 52.6289 184.477 53.0664C183.922 53.4961 183.27 53.8398 182.52 54.0977L181.406 54.6836H175.875L175.852 51.9414H179.965C180.582 51.9414 181.094 51.832 181.5 51.6133C181.906 51.3945 182.211 51.0898 182.414 50.6992C182.625 50.3086 182.73 49.8555 182.73 49.3398C182.73 48.793 182.629 48.3203 182.426 47.9219C182.223 47.5234 181.914 47.2188 181.5 47.0078C181.086 46.7969 180.566 46.6914 179.941 46.6914H177.094V61H173.578V43.9375ZM183.117 61L179.227 53.3945L182.941 53.3711L186.879 60.8359V61H183.117ZM192.691 43.9375V61H189.188V43.9375H192.691ZM205.254 58.4688L209.871 62.125L207.656 64.0469L203.109 60.3906L205.254 58.4688ZM209.988 52.0703V52.8789C209.988 54.1758 209.812 55.3398 209.461 56.3711C209.117 57.4023 208.621 58.2812 207.973 59.0078C207.324 59.7266 206.559 60.2773 205.676 60.6602C204.793 61.043 203.812 61.2344 202.734 61.2344C201.664 61.2344 200.684 61.043 199.793 60.6602C198.902 60.2773 198.133 59.7266 197.484 59.0078C196.836 58.2812 196.332 57.4023 195.973 56.3711C195.621 55.3398 195.445 54.1758 195.445 52.8789V52.0703C195.445 50.7656 195.621 49.6016 195.973 48.5781C196.332 47.5469 196.832 46.668 197.473 45.9414C198.113 45.2148 198.879 44.6602 199.77 44.2773C200.66 43.8945 201.641 43.7031 202.711 43.7031C203.789 43.7031 204.77 43.8945 205.652 44.2773C206.543 44.6602 207.312 45.2148 207.961 45.9414C208.609 46.668 209.109 47.5469 209.461 48.5781C209.812 49.6016 209.988 50.7656 209.988 52.0703ZM206.438 52.8789V52.0469C206.438 51.1406 206.352 50.3438 206.18 49.6562C206.016 48.9688 205.773 48.3906 205.453 47.9219C205.141 47.4531 204.754 47.1016 204.293 46.8672C203.832 46.625 203.305 46.5039 202.711 46.5039C202.117 46.5039 201.59 46.625 201.129 46.8672C200.668 47.1016 200.281 47.4531 199.969 47.9219C199.656 48.3906 199.418 48.9688 199.254 49.6562C199.09 50.3438 199.008 51.1406 199.008 52.0469V52.8789C199.008 53.7773 199.09 54.5742 199.254 55.2695C199.418 55.957 199.656 56.5391 199.969 57.0156C200.289 57.4844 200.68 57.8398 201.141 58.082C201.609 58.3242 202.141 58.4453 202.734 58.4453C203.328 58.4453 203.852 58.3242 204.305 58.082C204.766 57.8398 205.152 57.4844 205.465 57.0156C205.785 56.5391 206.027 55.957 206.191 55.2695C206.355 54.5742 206.438 53.7773 206.438 52.8789Z" fill="#888888"/>
<path d="M114.117 84.875H122.344V107.164C122.344 109.82 121.789 112.07 120.68 113.914C119.57 115.742 118.016 117.125 116.016 118.062C114.016 119 111.664 119.469 108.961 119.469C106.289 119.469 103.938 119 101.906 118.062C99.8906 117.125 98.3125 115.742 97.1719 113.914C96.0469 112.07 95.4844 109.82 95.4844 107.164V84.875H103.734V107.164C103.734 108.57 103.938 109.719 104.344 110.609C104.75 111.484 105.344 112.125 106.125 112.531C106.906 112.938 107.852 113.141 108.961 113.141C110.086 113.141 111.031 112.938 111.797 112.531C112.562 112.125 113.141 111.484 113.531 110.609C113.922 109.719 114.117 108.57 114.117 107.164V84.875ZM136.266 84.875V119H128.062V84.875H136.266ZM172.523 84.875H180.75V107.164C180.75 109.82 180.195 112.07 179.086 113.914C177.977 115.742 176.422 117.125 174.422 118.062C172.422 119 170.07 119.469 167.367 119.469C164.695 119.469 162.344 119 160.312 118.062C158.297 117.125 156.719 115.742 155.578 113.914C154.453 112.07 153.891 109.82 153.891 107.164V84.875H162.141V107.164C162.141 108.57 162.344 109.719 162.75 110.609C163.156 111.484 163.75 112.125 164.531 112.531C165.312 112.938 166.258 113.141 167.367 113.141C168.492 113.141 169.438 112.938 170.203 112.531C170.969 112.125 171.547 111.484 171.938 110.609C172.328 109.719 172.523 108.57 172.523 107.164V84.875ZM193.078 84.875L198.656 96.2188L204.234 84.875H213.609L204.094 101.797L213.867 119H204.398L198.656 107.445L192.914 119H183.422L193.219 101.797L183.68 84.875H193.078Z" fill="black"/>
<path d="M1134 0H1348C1356.28 0 1363 6.71573 1363 15V148C1363 156.284 1356.28 163 1348 163H1134V0Z" fill="#F4D26B"/>
<path d="M1248.5 111.917C1244.51 111.917 1240.55 111.13 1236.86 109.601C1233.17 108.073 1229.82 105.832 1226.99 103.008C1221.29 97.3036 1218.08 89.567 1218.08 81.5C1218.08 73.433 1221.29 65.6964 1226.99 59.9922C1232.7 54.2879 1240.43 51.0833 1248.5 51.0833C1265.23 51.0833 1278.92 63.25 1278.92 78.4583C1278.92 83.2985 1276.99 87.9405 1273.57 91.363C1270.15 94.7856 1265.51 96.7083 1260.67 96.7083H1255.19C1254.28 96.7083 1253.67 97.3167 1253.67 98.2292C1253.67 98.5333 1253.97 98.8375 1253.97 99.1417C1255.19 100.662 1255.8 102.487 1255.8 104.312C1256.1 108.571 1252.76 111.917 1248.5 111.917ZM1248.5 57.1667C1242.05 57.1667 1235.86 59.7303 1231.29 64.2937C1226.73 68.8571 1224.17 75.0464 1224.17 81.5C1224.17 87.9536 1226.73 94.1429 1231.29 98.7063C1235.86 103.27 1242.05 105.833 1248.5 105.833C1249.41 105.833 1250.02 105.225 1250.02 104.312C1250.02 103.704 1249.72 103.4 1249.72 103.096C1248.5 101.575 1247.89 100.054 1247.89 98.2292C1247.89 93.9708 1251.24 90.625 1255.5 90.625H1260.67C1263.89 90.625 1266.99 89.3432 1269.27 87.0615C1271.55 84.7798 1272.83 81.6851 1272.83 78.4583C1272.83 66.5958 1261.88 57.1667 1248.5 57.1667ZM1231.77 75.4167C1234.2 75.4167 1236.33 77.5458 1236.33 79.9792C1236.33 82.4125 1234.2 84.5417 1231.77 84.5417C1229.34 84.5417 1227.21 82.4125 1227.21 79.9792C1227.21 77.5458 1229.34 75.4167 1231.77 75.4167ZM1240.9 63.25C1243.33 63.25 1245.46 65.3792 1245.46 67.8125C1245.46 70.2458 1243.33 72.375 1240.9 72.375C1238.46 72.375 1236.33 70.2458 1236.33 67.8125C1236.33 65.3792 1238.46 63.25 1240.9 63.25ZM1256.1 63.25C1258.54 63.25 1260.67 65.3792 1260.67 67.8125C1260.67 70.2458 1258.54 72.375 1256.1 72.375C1253.67 72.375 1251.54 70.2458 1251.54 67.8125C1251.54 65.3792 1253.67 63.25 1256.1 63.25ZM1265.23 75.4167C1267.66 75.4167 1269.79 77.5458 1269.79 79.9792C1269.79 82.4125 1267.66 84.5417 1265.23 84.5417C1262.8 84.5417 1260.67 82.4125 1260.67 79.9792C1260.67 77.5458 1262.8 75.4167 1265.23 75.4167Z" fill="white"/>
</svg>
