<svg width="1363" height="163" viewBox="0 0 1363 163" fill="none" xmlns="http://www.w3.org/2000/svg">
<path d="M0 15C0 6.71573 6.71573 0 15 0H37V163H15C6.71573 163 0 156.284 0 148V15Z" fill="#424242"/>
<rect width="1097" height="163" transform="translate(37)" fill="#F0F0F0"/>
<path d="M103.406 56.5352C103.406 56.2305 103.359 55.957 103.266 55.7148C103.18 55.4648 103.016 55.2383 102.773 55.0352C102.531 54.8242 102.191 54.6172 101.754 54.4141C101.316 54.2109 100.75 54 100.055 53.7812C99.2812 53.5312 98.5469 53.25 97.8516 52.9375C97.1641 52.625 96.5547 52.2617 96.0234 51.8477C95.5 51.4258 95.0859 50.9375 94.7812 50.3828C94.4844 49.8281 94.3359 49.1836 94.3359 48.4492C94.3359 47.7383 94.4922 47.0938 94.8047 46.5156C95.1172 45.9297 95.5547 45.4297 96.1172 45.0156C96.6797 44.5938 97.3438 44.2695 98.1094 44.043C98.8828 43.8164 99.7305 43.7031 100.652 43.7031C101.91 43.7031 103.008 43.9297 103.945 44.3828C104.883 44.8359 105.609 45.457 106.125 46.2461C106.648 47.0352 106.91 47.9375 106.91 48.9531H103.418C103.418 48.4531 103.312 48.0156 103.102 47.6406C102.898 47.2578 102.586 46.957 102.164 46.7383C101.75 46.5195 101.227 46.4102 100.594 46.4102C99.9844 46.4102 99.4766 46.5039 99.0703 46.6914C98.6641 46.8711 98.3594 47.1172 98.1562 47.4297C97.9531 47.7344 97.8516 48.0781 97.8516 48.4609C97.8516 48.75 97.9219 49.0117 98.0625 49.2461C98.2109 49.4805 98.4297 49.6992 98.7188 49.9023C99.0078 50.1055 99.3633 50.2969 99.7852 50.4766C100.207 50.6562 100.695 50.832 101.25 51.0039C102.18 51.2852 102.996 51.6016 103.699 51.9531C104.41 52.3047 105.004 52.6992 105.48 53.1367C105.957 53.5742 106.316 54.0703 106.559 54.625C106.801 55.1797 106.922 55.8086 106.922 56.5117C106.922 57.2539 106.777 57.918 106.488 58.5039C106.199 59.0898 105.781 59.5859 105.234 59.9922C104.688 60.3984 104.035 60.707 103.277 60.918C102.52 61.1289 101.672 61.2344 100.734 61.2344C99.8906 61.2344 99.0586 61.125 98.2383 60.9062C97.418 60.6797 96.6719 60.3398 96 59.8867C95.3359 59.4336 94.8047 58.8555 94.4062 58.1523C94.0078 57.4492 93.8086 56.6172 93.8086 55.6562H97.3359C97.3359 56.1875 97.418 56.6367 97.582 57.0039C97.7461 57.3711 97.9766 57.668 98.2734 57.8945C98.5781 58.1211 98.9375 58.2852 99.3516 58.3867C99.7734 58.4883 100.234 58.5391 100.734 58.5391C101.344 58.5391 101.844 58.4531 102.234 58.2812C102.633 58.1094 102.926 57.8711 103.113 57.5664C103.309 57.2617 103.406 56.918 103.406 56.5352ZM123.328 52.0703V52.8789C123.328 54.1758 123.152 55.3398 122.801 56.3711C122.449 57.4023 121.953 58.2812 121.312 59.0078C120.672 59.7266 119.906 60.2773 119.016 60.6602C118.133 61.043 117.152 61.2344 116.074 61.2344C115.004 61.2344 114.023 61.043 113.133 60.6602C112.25 60.2773 111.484 59.7266 110.836 59.0078C110.188 58.2812 109.684 57.4023 109.324 56.3711C108.973 55.3398 108.797 54.1758 108.797 52.8789V52.0703C108.797 50.7656 108.973 49.6016 109.324 48.5781C109.676 47.5469 110.172 46.668 110.812 45.9414C111.461 45.2148 112.227 44.6602 113.109 44.2773C114 43.8945 114.98 43.7031 116.051 43.7031C117.129 43.7031 118.109 43.8945 118.992 44.2773C119.883 44.6602 120.648 45.2148 121.289 45.9414C121.938 46.668 122.438 47.5469 122.789 48.5781C123.148 49.6016 123.328 50.7656 123.328 52.0703ZM119.777 52.8789V52.0469C119.777 51.1406 119.695 50.3438 119.531 49.6562C119.367 48.9688 119.125 48.3906 118.805 47.9219C118.484 47.4531 118.094 47.1016 117.633 46.8672C117.172 46.625 116.645 46.5039 116.051 46.5039C115.457 46.5039 114.93 46.625 114.469 46.8672C114.016 47.1016 113.629 47.4531 113.309 47.9219C112.996 48.3906 112.758 48.9688 112.594 49.6562C112.43 50.3438 112.348 51.1406 112.348 52.0469V52.8789C112.348 53.7773 112.43 54.5742 112.594 55.2695C112.758 55.957 113 56.5391 113.32 57.0156C113.641 57.4844 114.031 57.8398 114.492 58.082C114.953 58.3242 115.48 58.4453 116.074 58.4453C116.668 58.4453 117.195 58.3242 117.656 58.082C118.117 57.8398 118.504 57.4844 118.816 57.0156C119.129 56.5391 119.367 55.957 119.531 55.2695C119.695 54.5742 119.777 53.7773 119.777 52.8789ZM136.828 58.2578V61H128.238V58.2578H136.828ZM129.375 43.9375V61H125.859V43.9375H129.375ZM146.016 46.8555L141.375 61H137.637L143.977 43.9375H146.355L146.016 46.8555ZM149.871 61L145.219 46.8555L144.844 43.9375H147.246L153.621 61H149.871ZM149.66 54.6484V57.4023H140.648V54.6484H149.66ZM155.203 43.9375H161.566C162.871 43.9375 163.992 44.1328 164.93 44.5234C165.875 44.9141 166.602 45.4922 167.109 46.2578C167.617 47.0234 167.871 47.9648 167.871 49.082C167.871 49.9961 167.715 50.7812 167.402 51.4375C167.098 52.0859 166.664 52.6289 166.102 53.0664C165.547 53.4961 164.895 53.8398 164.145 54.0977L163.031 54.6836H157.5L157.477 51.9414H161.59C162.207 51.9414 162.719 51.832 163.125 51.6133C163.531 51.3945 163.836 51.0898 164.039 50.6992C164.25 50.3086 164.355 49.8555 164.355 49.3398C164.355 48.793 164.254 48.3203 164.051 47.9219C163.848 47.5234 163.539 47.2188 163.125 47.0078C162.711 46.7969 162.191 46.6914 161.566 46.6914H158.719V61H155.203V43.9375ZM164.742 61L160.852 53.3945L164.566 53.3711L168.504 60.8359V61H164.742ZM174.316 43.9375V61H170.812V43.9375H174.316ZM186.879 58.4688L191.496 62.125L189.281 64.0469L184.734 60.3906L186.879 58.4688ZM191.613 52.0703V52.8789C191.613 54.1758 191.438 55.3398 191.086 56.3711C190.742 57.4023 190.246 58.2812 189.598 59.0078C188.949 59.7266 188.184 60.2773 187.301 60.6602C186.418 61.043 185.438 61.2344 184.359 61.2344C183.289 61.2344 182.309 61.043 181.418 60.6602C180.527 60.2773 179.758 59.7266 179.109 59.0078C178.461 58.2812 177.957 57.4023 177.598 56.3711C177.246 55.3398 177.07 54.1758 177.07 52.8789V52.0703C177.07 50.7656 177.246 49.6016 177.598 48.5781C177.957 47.5469 178.457 46.668 179.098 45.9414C179.738 45.2148 180.504 44.6602 181.395 44.2773C182.285 43.8945 183.266 43.7031 184.336 43.7031C185.414 43.7031 186.395 43.8945 187.277 44.2773C188.168 44.6602 188.938 45.2148 189.586 45.9414C190.234 46.668 190.734 47.5469 191.086 48.5781C191.438 49.6016 191.613 50.7656 191.613 52.0703ZM188.062 52.8789V52.0469C188.062 51.1406 187.977 50.3438 187.805 49.6562C187.641 48.9688 187.398 48.3906 187.078 47.9219C186.766 47.4531 186.379 47.1016 185.918 46.8672C185.457 46.625 184.93 46.5039 184.336 46.5039C183.742 46.5039 183.215 46.625 182.754 46.8672C182.293 47.1016 181.906 47.4531 181.594 47.9219C181.281 48.3906 181.043 48.9688 180.879 49.6562C180.715 50.3438 180.633 51.1406 180.633 52.0469V52.8789C180.633 53.7773 180.715 54.5742 180.879 55.2695C181.043 55.957 181.281 56.5391 181.594 57.0156C181.914 57.4844 182.305 57.8398 182.766 58.082C183.234 58.3242 183.766 58.4453 184.359 58.4453C184.953 58.4453 185.477 58.3242 185.93 58.082C186.391 57.8398 186.777 57.4844 187.09 57.0156C187.41 56.5391 187.652 55.957 187.816 55.2695C187.98 54.5742 188.062 53.7773 188.062 52.8789Z" fill="#888888"/>
<path d="M118.594 98.4219V104.75H101.086V98.4219H118.594ZM103.828 84.875V119H95.6016V84.875H103.828ZM124.125 84.875V119H115.922V84.875H124.125ZM127.992 106.578V106.086C127.992 104.227 128.258 102.516 128.789 100.953C129.32 99.375 130.102 98.0078 131.133 96.8516C132.164 95.6953 133.438 94.7969 134.953 94.1562C136.469 93.5 138.219 93.1719 140.203 93.1719C142.203 93.1719 143.961 93.5 145.477 94.1562C147.008 94.7969 148.289 95.6953 149.32 96.8516C150.352 98.0078 151.133 99.375 151.664 100.953C152.195 102.516 152.461 104.227 152.461 106.086V106.578C152.461 108.422 152.195 110.133 151.664 111.711C151.133 113.273 150.352 114.641 149.32 115.812C148.289 116.969 147.016 117.867 145.5 118.508C143.984 119.148 142.234 119.469 140.25 119.469C138.266 119.469 136.508 119.148 134.977 118.508C133.445 117.867 132.164 116.969 131.133 115.812C130.102 114.641 129.32 113.273 128.789 111.711C128.258 110.133 127.992 108.422 127.992 106.578ZM135.891 106.086V106.578C135.891 107.531 135.961 108.422 136.102 109.25C136.242 110.078 136.477 110.805 136.805 111.43C137.133 112.039 137.578 112.516 138.141 112.859C138.703 113.203 139.406 113.375 140.25 113.375C141.078 113.375 141.766 113.203 142.312 112.859C142.875 112.516 143.32 112.039 143.648 111.43C143.977 110.805 144.211 110.078 144.352 109.25C144.492 108.422 144.562 107.531 144.562 106.578V106.086C144.562 105.164 144.492 104.297 144.352 103.484C144.211 102.656 143.977 101.93 143.648 101.305C143.32 100.664 142.875 100.164 142.312 99.8047C141.75 99.4453 141.047 99.2656 140.203 99.2656C139.375 99.2656 138.68 99.4453 138.117 99.8047C137.57 100.164 137.133 100.664 136.805 101.305C136.477 101.93 136.242 102.656 136.102 103.484C135.961 104.297 135.891 105.164 135.891 106.086ZM163.688 111.453L168.375 93.6406H173.32L171.562 102.57L166.922 119H162.961L163.688 111.453ZM161.836 93.6406L164.742 111.312L165.07 119H160.266L154.266 93.6406H161.836ZM177.492 110.938L180.422 93.6406H187.992L182.039 119H177.234L177.492 110.938ZM173.883 93.6406L178.617 111.406L179.344 119H175.336L170.789 102.617L169.102 93.6406H173.883ZM218.297 84.875V119H210.07V84.875H218.297ZM228.562 84.875V91.2266H200.039V84.875H228.562ZM225.773 106.578V106.086C225.773 104.227 226.039 102.516 226.57 100.953C227.102 99.375 227.883 98.0078 228.914 96.8516C229.945 95.6953 231.219 94.7969 232.734 94.1562C234.25 93.5 236 93.1719 237.984 93.1719C239.984 93.1719 241.742 93.5 243.258 94.1562C244.789 94.7969 246.07 95.6953 247.102 96.8516C248.133 98.0078 248.914 99.375 249.445 100.953C249.977 102.516 250.242 104.227 250.242 106.086V106.578C250.242 108.422 249.977 110.133 249.445 111.711C248.914 113.273 248.133 114.641 247.102 115.812C246.07 116.969 244.797 117.867 243.281 118.508C241.766 119.148 240.016 119.469 238.031 119.469C236.047 119.469 234.289 119.148 232.758 118.508C231.227 117.867 229.945 116.969 228.914 115.812C227.883 114.641 227.102 113.273 226.57 111.711C226.039 110.133 225.773 108.422 225.773 106.578ZM233.672 106.086V106.578C233.672 107.531 233.742 108.422 233.883 109.25C234.023 110.078 234.258 110.805 234.586 111.43C234.914 112.039 235.359 112.516 235.922 112.859C236.484 113.203 237.188 113.375 238.031 113.375C238.859 113.375 239.547 113.203 240.094 112.859C240.656 112.516 241.102 112.039 241.43 111.43C241.758 110.805 241.992 110.078 242.133 109.25C242.273 108.422 242.344 107.531 242.344 106.578V106.086C242.344 105.164 242.273 104.297 242.133 103.484C241.992 102.656 241.758 101.93 241.43 101.305C241.102 100.664 240.656 100.164 240.094 99.8047C239.531 99.4453 238.828 99.2656 237.984 99.2656C237.156 99.2656 236.461 99.4453 235.898 99.8047C235.352 100.164 234.914 100.664 234.586 101.305C234.258 101.93 234.023 102.656 233.883 103.484C233.742 104.297 233.672 105.164 233.672 106.086ZM266.086 84.875H279.516C282.141 84.875 284.422 85.2656 286.359 86.0469C288.297 86.8281 289.789 87.9844 290.836 89.5156C291.898 91.0469 292.43 92.9375 292.43 95.1875C292.43 97.1406 292.125 98.7734 291.516 100.086C290.906 101.398 290.055 102.484 288.961 103.344C287.883 104.188 286.625 104.883 285.188 105.43L282.492 106.953H271.219L271.172 100.602H279.516C280.562 100.602 281.43 100.414 282.117 100.039C282.805 99.6641 283.32 99.1328 283.664 98.4453C284.023 97.7422 284.203 96.9062 284.203 95.9375C284.203 94.9531 284.023 94.1094 283.664 93.4062C283.305 92.7031 282.773 92.1641 282.07 91.7891C281.383 91.4141 280.531 91.2266 279.516 91.2266H274.312V119H266.086V84.875ZM284.766 119L277.219 103.906L285.938 103.859L293.578 118.648V119H284.766ZM311.836 112.836V93.6406H319.758V119H312.352L311.836 112.836ZM312.586 107.68L314.648 107.633C314.648 109.336 314.445 110.914 314.039 112.367C313.633 113.805 313.031 115.055 312.234 116.117C311.453 117.18 310.484 118.008 309.328 118.602C308.188 119.18 306.867 119.469 305.367 119.469C304.117 119.469 302.969 119.297 301.922 118.953C300.891 118.594 300 118.039 299.25 117.289C298.5 116.523 297.914 115.547 297.492 114.359C297.086 113.156 296.883 111.719 296.883 110.047V93.6406H304.781V110.094C304.781 110.656 304.852 111.141 304.992 111.547C305.133 111.953 305.336 112.297 305.602 112.578C305.867 112.844 306.195 113.047 306.586 113.188C306.992 113.312 307.453 113.375 307.969 113.375C309.156 113.375 310.086 113.125 310.758 112.625C311.43 112.125 311.898 111.445 312.164 110.586C312.445 109.727 312.586 108.758 312.586 107.68ZM331.875 99.0547V119H323.977V93.6406H331.383L331.875 99.0547ZM330.938 105.453L329.086 105.5C329.086 103.562 329.32 101.836 329.789 100.32C330.258 98.7891 330.922 97.4922 331.781 96.4297C332.641 95.3672 333.664 94.5625 334.852 94.0156C336.055 93.4531 337.391 93.1719 338.859 93.1719C340.031 93.1719 341.102 93.3438 342.07 93.6875C343.055 94.0312 343.898 94.5859 344.602 95.3516C345.32 96.1172 345.867 97.1328 346.242 98.3984C346.633 99.6484 346.828 101.195 346.828 103.039V119H338.883V103.016C338.883 102 338.742 101.227 338.461 100.695C338.18 100.148 337.773 99.7734 337.242 99.5703C336.711 99.3672 336.062 99.2656 335.297 99.2656C334.484 99.2656 333.797 99.4219 333.234 99.7344C332.672 100.047 332.219 100.484 331.875 101.047C331.547 101.594 331.305 102.242 331.148 102.992C331.008 103.742 330.938 104.562 330.938 105.453ZM363.773 108.195H357.047C357.047 106.82 357.141 105.609 357.328 104.562C357.531 103.5 357.875 102.547 358.359 101.703C358.844 100.859 359.5 100.078 360.328 99.3594C361.062 98.75 361.695 98.1641 362.227 97.6016C362.758 97.0391 363.164 96.4688 363.445 95.8906C363.727 95.3125 363.867 94.6953 363.867 94.0391C363.867 93.2266 363.75 92.5625 363.516 92.0469C363.297 91.5312 362.961 91.1484 362.508 90.8984C362.07 90.6328 361.516 90.5 360.844 90.5C360.297 90.5 359.781 90.6328 359.297 90.8984C358.828 91.1641 358.445 91.5781 358.148 92.1406C357.852 92.6875 357.688 93.4141 357.656 94.3203H349.711C349.758 91.9922 350.273 90.1016 351.258 88.6484C352.258 87.1797 353.586 86.1094 355.242 85.4375C356.914 84.75 358.781 84.4062 360.844 84.4062C363.125 84.4062 365.086 84.7578 366.727 85.4609C368.367 86.1641 369.625 87.2109 370.5 88.6016C371.375 89.9766 371.812 91.6719 371.812 93.6875C371.812 95.0312 371.555 96.2031 371.039 97.2031C370.539 98.1875 369.859 99.1094 369 99.9688C368.156 100.812 367.211 101.719 366.164 102.688C365.258 103.484 364.641 104.297 364.312 105.125C363.984 105.938 363.805 106.961 363.773 108.195ZM356.086 115.32C356.086 114.195 356.492 113.258 357.305 112.508C358.117 111.742 359.172 111.359 360.469 111.359C361.766 111.359 362.82 111.742 363.633 112.508C364.445 113.258 364.852 114.195 364.852 115.32C364.852 116.445 364.445 117.391 363.633 118.156C362.82 118.906 361.766 119.281 360.469 119.281C359.172 119.281 358.117 118.906 357.305 118.156C356.492 117.391 356.086 116.445 356.086 115.32Z" fill="black"/>
<path d="M1134 0H1348C1356.28 0 1363 6.71573 1363 15V148C1363 156.284 1356.28 163 1348 163H1134V0Z" fill="#F4D26B"/>
<path d="M1260.62 78.8847C1263.81 78.8847 1266.93 79.805 1269.59 81.5293C1272.25 83.2536 1274.32 85.7044 1275.54 88.5718C1276.76 91.4391 1277.08 94.5943 1276.46 97.6383C1275.84 100.682 1274.3 103.478 1272.04 105.673C1269.78 107.868 1266.9 109.362 1263.77 109.968C1260.63 110.573 1257.39 110.262 1254.43 109.075C1251.48 107.887 1248.96 105.876 1247.18 103.295C1245.41 100.714 1244.46 97.6806 1244.46 94.5769C1244.46 90.4151 1246.16 86.4237 1249.19 83.4808C1252.22 80.538 1256.33 78.8847 1260.62 78.8847ZM1260.62 73.6539C1256.36 73.6539 1252.19 74.881 1248.65 77.1801C1245.11 79.4791 1242.35 82.7469 1240.72 86.57C1239.09 90.3932 1238.66 94.6001 1239.49 98.6588C1240.32 102.717 1242.37 106.446 1245.39 109.372C1248.4 112.298 1252.24 114.291 1256.41 115.098C1260.59 115.905 1264.92 115.491 1268.86 113.907C1272.79 112.324 1276.16 109.642 1278.52 106.201C1280.89 102.76 1282.15 98.7151 1282.15 94.5769C1282.15 89.0278 1279.88 83.706 1275.85 79.7821C1271.81 75.8583 1266.33 73.6539 1260.62 73.6539Z" fill="white"/>
<path d="M1274.08 47.5H1220.23C1218.8 47.5 1217.43 48.0511 1216.42 49.0321C1215.41 50.013 1214.85 51.3435 1214.85 52.7307V105.038C1214.85 106.426 1215.41 107.756 1216.42 108.737C1217.43 109.718 1218.8 110.269 1220.23 110.269H1231V105.038H1220.23V68.423H1279.46V52.7307C1279.46 51.3435 1278.89 50.013 1277.88 49.0321C1276.87 48.0511 1275.5 47.5 1274.08 47.5ZM1220.23 63.1922V52.7307H1274.08V63.1922H1220.23Z" fill="white"/>
<path d="M1255.23 86.731V102.423L1268.69 94.5771L1255.23 86.731Z" fill="white"/>
</svg>
